<svg xmlns="http://www.w3.org/2000/svg" xmlns:xlink="http://www.w3.org/1999/xlink" width="2000" zoomAndPan="magnify" viewBox="0 0 1500 1499.999933" height="2000" preserveAspectRatio="xMidYMid meet" version="1.0"><defs><clipPath id="9df01a7f83"><path d="M 246 619 L 1432 619 L 1432 1344 L 246 1344 Z M 246 619 " clip-rule="nonzero"/></clipPath><clipPath id="2a147e363f"><path d="M 971.011719 1556.21875 L 158.964844 702.488281 L 722.503906 166.464844 L 1534.550781 1020.195312 Z M 971.011719 1556.21875 " clip-rule="nonzero"/></clipPath><clipPath id="824f620845"><path d="M 971.011719 1556.21875 L 158.964844 702.488281 L 722.503906 166.464844 L 1534.550781 1020.195312 Z M 971.011719 1556.21875 " clip-rule="nonzero"/></clipPath><clipPath id="7d16255648"><path d="M 361 314 L 1224.226562 314 L 1224.226562 1177.214844 L 361 1177.214844 Z M 361 314 " clip-rule="nonzero"/></clipPath><clipPath id="dc0b5a22e3"><path d="M 33.226562 318 L 895 318 L 895 1177 L 33.226562 1177 Z M 33.226562 318 " clip-rule="nonzero"/></clipPath><clipPath id="8328df235f"><path d="M 351 339.453125 L 1188.976562 339.453125 L 1188.976562 1177.203125 L 351 1177.203125 Z M 351 339.453125 " clip-rule="nonzero"/></clipPath><clipPath id="ce624d149d"><path d="M 33.226562 343 L 869 343 L 869 1177 L 33.226562 1177 Z M 33.226562 343 " clip-rule="nonzero"/></clipPath><clipPath id="04e3fb5629"><path d="M 841 38 L 1068 38 L 1068 248 L 841 248 Z M 841 38 " clip-rule="nonzero"/></clipPath><clipPath id="8b5198d3c4"><path d="M 848.464844 28.1875 L 1070.085938 41.140625 L 1057.613281 254.527344 L 835.992188 241.574219 Z M 848.464844 28.1875 " clip-rule="nonzero"/></clipPath><clipPath id="380f37f6f2"><path d="M 848.464844 28.1875 L 1070.085938 41.140625 L 1057.613281 254.527344 L 835.992188 241.574219 Z M 848.464844 28.1875 " clip-rule="nonzero"/></clipPath><clipPath id="6cbac18253"><path d="M 33.226562 1218 L 476.476562 1218 L 476.476562 1365.664062 L 33.226562 1365.664062 Z M 33.226562 1218 " clip-rule="nonzero"/></clipPath><clipPath id="9b08e18792"><path d="M 0.226562 0.238281 L 443 0.238281 L 443 147 L 0.226562 147 Z M 0.226562 0.238281 " clip-rule="nonzero"/></clipPath><clipPath id="4431e9710f"><rect x="0" width="444" y="0" height="148"/></clipPath></defs><g clip-path="url(#9df01a7f83)"><g clip-path="url(#2a147e363f)"><g clip-path="url(#824f620845)"><path fill="#d1d4d1" d="M 478.257812 999.15625 C 365.066406 880.15625 286.238281 746.667969 246.164062 619.757812 C 278.417969 761.582031 362.972656 916.964844 492.824219 1053.484375 C 756.8125 1331.023438 1108.042969 1425.484375 1277.320312 1264.472656 C 1339.585938 1205.246094 1368.535156 1119.691406 1367.148438 1021.390625 C 1384.652344 1025.109375 1403.457031 1037.601562 1431.613281 1059.304688 C 1384.398438 991.269531 1384.429688 976.390625 1431.933594 912.886719 C 1366.136719 957.152344 1351.273438 956.441406 1285.683594 905.882812 C 1332.898438 973.917969 1332.867188 988.800781 1285.363281 1052.300781 C 1322.433594 1027.359375 1343.335938 1016.703125 1366.25 1021.1875 C 1356.539062 1095.75 1327.132812 1160.511719 1276.558594 1208.613281 C 1102.855469 1373.835938 745.445312 1280.058594 478.257812 999.15625 Z M 478.257812 999.15625 " fill-opacity="1" fill-rule="nonzero"/></g></g></g><g clip-path="url(#7d16255648)"><path fill="#d1d4d1" d="M 381.050781 1176.902344 C 370.355469 1176.902344 361.605469 1168.152344 361.605469 1157.457031 L 361.605469 881.820312 L 565.539062 881.820312 L 565.539062 1157.457031 C 565.539062 1168.152344 556.785156 1176.902344 546.09375 1176.902344 Z M 381.78125 472.503906 C 374.976562 488.546875 369.871094 505.316406 366.46875 522.574219 C 364.523438 532.054688 363.308594 541.777344 362.578125 551.742188 C 362.09375 558.789062 361.605469 565.839844 361.605469 573.132812 L 361.605469 615.179688 L 565.539062 615.179688 L 565.539062 558.304688 C 565.539062 556.117188 565.78125 553.929688 566.023438 551.984375 C 567.238281 543.476562 570.882812 536.183594 577.449219 530.109375 C 580.605469 527.191406 583.765625 524.761719 587.414062 522.816406 C 593.246094 519.898438 599.566406 518.441406 607.101562 518.441406 L 980.691406 518.441406 C 991.628906 518.441406 1000.378906 522.085938 1008.640625 530.109375 C 1016.664062 537.886719 1020.550781 546.878906 1020.550781 558.546875 L 1020.550781 640.945312 L 813.949219 640.945312 C 831.933594 650.667969 848.21875 663.066406 862.5625 677.40625 C 881.519531 696.609375 896.832031 719.210938 907.527344 744.734375 C 918.464844 770.5 923.8125 798.449219 923.8125 827.617188 L 923.8125 851.683594 L 1020.550781 851.683594 L 1020.550781 1157.699219 C 1020.550781 1168.394531 1029.300781 1177.144531 1039.996094 1177.144531 L 1204.792969 1177.144531 C 1215.488281 1177.144531 1224.238281 1168.394531 1224.238281 1157.699219 L 1224.238281 573.132812 C 1224.238281 537.886719 1217.433594 504.101562 1204.066406 472.503906 C 1190.695312 441.148438 1171.980469 413.195312 1148.648438 389.859375 C 1125.070312 366.285156 1097.359375 347.8125 1066.003906 334.441406 C 1034.40625 321.074219 1000.136719 314.269531 963.917969 314.269531 L 619.011719 314.269531 C 602.726562 314.269531 586.441406 315.726562 570.882812 318.644531 C 552.898438 322.046875 535.640625 327.152344 519.113281 334.441406 C 488.242188 347.8125 460.777344 366.527344 437.199219 389.859375 C 413.621094 413.4375 395.148438 441.148438 381.78125 472.503906 Z M 381.78125 472.503906 " fill-opacity="1" fill-rule="nonzero"/></g><g clip-path="url(#dc0b5a22e3)"><path fill="#191919" d="M 33.226562 1157.457031 L 33.226562 992.414062 C 33.226562 981.722656 41.976562 972.972656 52.671875 972.972656 L 332.4375 972.972656 L 332.4375 1157.457031 C 332.4375 1164.261719 333.898438 1171.066406 336.570312 1176.902344 L 52.671875 1176.902344 C 41.976562 1176.902344 33.226562 1168.152344 33.226562 1157.457031 Z M 85.972656 799.421875 C 102.5 815.953125 122.1875 829.320312 144.550781 838.558594 C 166.914062 848.035156 190.976562 852.65625 216.011719 852.65625 L 670.785156 852.65625 C 676.859375 852.65625 681.234375 854.355469 685.125 857.757812 C 688.527344 860.917969 689.984375 864.566406 689.984375 869.910156 L 689.984375 952.308594 C 689.984375 958.144531 688.285156 962.761719 684.152344 966.894531 C 680.261719 971.027344 676.375 972.726562 670.785156 972.726562 L 594.703125 972.726562 L 594.703125 1157.214844 C 594.703125 1164.019531 593.246094 1170.824219 590.574219 1176.65625 L 711.375 1176.65625 C 737.625 1176.65625 761.933594 1171.796875 783.808594 1162.558594 C 805.683594 1153.324219 825.128906 1139.957031 841.65625 1123.425781 C 858.1875 1106.898438 871.066406 1087.210938 880.304688 1065.335938 C 889.539062 1043.214844 894.402344 1019.152344 894.402344 993.875 L 894.402344 827.375 C 894.402344 802.097656 889.785156 778.035156 880.304688 755.914062 C 871.066406 733.796875 857.941406 714.351562 841.65625 697.824219 C 825.128906 681.292969 805.925781 668.167969 783.808594 658.691406 C 761.691406 649.210938 737.382812 644.59375 711.375 644.59375 L 256.601562 644.59375 C 250.769531 644.59375 246.636719 642.890625 242.75 639 C 239.101562 635.355469 237.402344 630.980469 237.402344 625.148438 L 237.402344 541.777344 C 237.402344 535.941406 239.101562 531.808594 242.75 527.921875 C 246.636719 524.277344 250.769531 522.574219 256.601562 522.574219 L 337.058594 522.574219 C 340.703125 501.425781 346.78125 480.765625 355.289062 461.078125 C 370.113281 426.320312 390.773438 395.207031 417.027344 369.199219 C 437.199219 349.027344 460.046875 332.011719 485.082031 318.644531 L 216.253906 318.644531 C 191.21875 318.644531 167.15625 323.503906 144.792969 332.742188 C 122.433594 342.222656 102.5 355.347656 86.214844 371.875 C 69.6875 388.402344 56.804688 408.335938 47.324219 430.9375 C 37.847656 453.785156 33.226562 477.851562 33.226562 503.128906 L 33.226562 666.710938 C 33.226562 692.960938 37.847656 717.753906 47.324219 740.359375 C 56.5625 762.722656 69.445312 782.652344 85.972656 799.421875 Z M 85.972656 799.421875 " fill-opacity="1" fill-rule="nonzero"/></g><g clip-path="url(#8328df235f)"><path fill="#191919" d="M 370.785156 1176.917969 C 360.40625 1176.917969 351.914062 1168.425781 351.914062 1158.046875 L 351.914062 890.546875 L 549.824219 890.546875 L 549.824219 1158.046875 C 549.824219 1168.425781 541.332031 1176.917969 530.953125 1176.917969 Z M 371.492188 493.3125 C 364.886719 508.878906 359.933594 525.15625 356.632812 541.902344 C 354.746094 551.101562 353.566406 560.539062 352.855469 570.210938 C 352.386719 577.050781 351.914062 583.890625 351.914062 590.96875 L 351.914062 631.777344 L 549.824219 631.777344 L 549.824219 576.578125 C 549.824219 574.457031 550.058594 572.332031 550.296875 570.445312 C 551.476562 562.191406 555.015625 555.113281 561.382812 549.214844 C 564.449219 546.386719 567.515625 544.027344 571.054688 542.140625 C 576.714844 539.308594 582.847656 537.894531 590.160156 537.894531 L 952.722656 537.894531 C 963.335938 537.894531 971.828125 541.433594 979.851562 549.214844 C 987.632812 556.765625 991.410156 565.492188 991.410156 576.816406 L 991.410156 656.78125 L 790.902344 656.78125 C 808.359375 666.21875 824.164062 678.246094 838.082031 692.164062 C 856.480469 710.800781 871.339844 732.738281 881.71875 757.507812 C 892.335938 782.511719 897.523438 809.636719 897.523438 837.945312 L 897.523438 861.296875 L 991.410156 861.296875 L 991.410156 1158.28125 C 991.410156 1168.660156 999.902344 1177.152344 1010.28125 1177.152344 L 1170.210938 1177.152344 C 1180.589844 1177.152344 1189.082031 1168.660156 1189.082031 1158.28125 L 1189.082031 590.96875 C 1189.082031 556.765625 1182.476562 523.976562 1169.503906 493.3125 C 1156.53125 462.882812 1138.367188 435.753906 1115.722656 413.109375 C 1092.839844 390.226562 1065.949219 372.300781 1035.519531 359.324219 C 1004.855469 346.351562 971.59375 339.746094 936.445312 339.746094 L 601.71875 339.746094 C 585.914062 339.746094 570.109375 341.164062 555.015625 343.992188 C 537.558594 347.296875 520.808594 352.25 504.769531 359.324219 C 474.8125 372.300781 448.15625 390.464844 425.273438 413.109375 C 402.394531 435.988281 384.464844 462.882812 371.492188 493.3125 Z M 371.492188 493.3125 " fill-opacity="1" fill-rule="nonzero"/></g><g clip-path="url(#ce624d149d)"><path fill="#d1d4d1" d="M 33.226562 1158.046875 L 33.226562 997.878906 C 33.226562 987.496094 41.71875 979.007812 52.097656 979.007812 L 323.605469 979.007812 L 323.605469 1158.046875 C 323.605469 1164.648438 325.023438 1171.253906 327.617188 1176.917969 L 52.097656 1176.917969 C 41.71875 1176.917969 33.226562 1168.425781 33.226562 1158.046875 Z M 84.414062 810.582031 C 100.457031 826.621094 119.5625 839.59375 141.265625 848.558594 C 162.96875 857.757812 186.320312 862.242188 210.617188 862.242188 L 651.964844 862.242188 C 657.863281 862.242188 662.109375 863.890625 665.882812 867.195312 C 669.183594 870.261719 670.601562 873.800781 670.601562 878.988281 L 670.601562 958.957031 C 670.601562 964.617188 668.949219 969.097656 664.9375 973.109375 C 661.164062 977.117188 657.390625 978.769531 651.964844 978.769531 L 578.132812 978.769531 L 578.132812 1157.808594 C 578.132812 1164.414062 576.714844 1171.019531 574.121094 1176.679688 L 691.359375 1176.679688 C 716.832031 1176.679688 740.421875 1171.964844 761.652344 1163 C 782.882812 1154.035156 801.753906 1141.0625 817.792969 1125.019531 C 833.835938 1108.980469 846.335938 1089.875 855.300781 1068.644531 C 864.265625 1047.179688 868.980469 1023.824219 868.980469 999.292969 L 868.980469 837.707031 C 868.980469 813.175781 864.5 789.824219 855.300781 768.355469 C 846.335938 746.890625 833.597656 728.019531 817.792969 711.980469 C 801.753906 695.9375 783.117188 683.203125 761.652344 674 C 740.1875 664.800781 716.597656 660.320312 691.359375 660.320312 L 250.011719 660.320312 C 244.347656 660.320312 240.339844 658.667969 236.5625 654.894531 C 233.027344 651.355469 231.375 647.109375 231.375 641.449219 L 231.375 560.539062 C 231.375 554.878906 233.027344 550.867188 236.5625 547.09375 C 240.339844 543.554688 244.347656 541.902344 250.011719 541.902344 L 328.089844 541.902344 C 331.628906 521.382812 337.523438 501.332031 345.78125 482.222656 C 360.171875 448.492188 380.21875 418.296875 405.695312 393.058594 C 425.273438 373.480469 447.449219 356.96875 471.746094 343.992188 L 210.851562 343.992188 C 186.554688 343.992188 163.203125 348.710938 141.5 357.675781 C 119.800781 366.875 100.457031 379.613281 84.652344 395.652344 C 68.613281 411.691406 56.109375 431.035156 46.910156 452.972656 C 37.710938 475.148438 33.226562 498.5 33.226562 523.03125 L 33.226562 681.785156 C 33.226562 707.261719 37.710938 731.324219 46.910156 753.261719 C 55.875 774.960938 68.375 794.304688 84.414062 810.582031 Z M 84.414062 810.582031 " fill-opacity="1" fill-rule="nonzero"/></g><g clip-path="url(#04e3fb5629)"><g clip-path="url(#8b5198d3c4)"><g clip-path="url(#380f37f6f2)"><path fill="#d1d4d1" d="M 942.054688 204.21875 L 935.113281 247.234375 L 933.234375 203.703125 C 932.054688 176.421875 911.863281 153.726562 884.90625 149.375 L 841.890625 142.433594 L 885.421875 140.554688 C 912.703125 139.375 935.398438 119.183594 939.75 92.226562 L 946.6875 49.210938 L 948.570312 92.742188 C 949.75 120.023438 969.941406 142.71875 996.898438 147.070312 L 1039.914062 154.007812 L 996.382812 155.890625 C 969.101562 157.070312 946.40625 177.261719 942.054688 204.21875 Z M 1048.066406 86.175781 L 1067.496094 85.339844 L 1048.296875 82.242188 C 1036.261719 80.296875 1027.253906 70.171875 1026.726562 57.992188 L 1025.886719 38.5625 L 1022.792969 57.761719 C 1020.847656 69.796875 1010.71875 78.804688 998.542969 79.335938 L 979.113281 80.171875 L 998.3125 83.269531 C 1010.34375 85.210938 1019.355469 95.339844 1019.882812 107.515625 L 1020.722656 126.945312 L 1023.816406 107.746094 C 1025.761719 95.714844 1035.890625 86.703125 1048.066406 86.175781 Z M 1048.066406 86.175781 " fill-opacity="1" fill-rule="nonzero"/></g></g></g><g clip-path="url(#6cbac18253)"><g transform="matrix(1, 0, 0, 1, 33, 1218)"><g clip-path="url(#4431e9710f)"><g clip-path="url(#9b08e18792)"><path fill="#d1d4d1" d="M 362.914062 81.046875 L 2.730469 74.988281 C 1 74.925781 0.226562 72.382812 1.921875 72.320312 L 358.429688 66.257812 C 359.089844 66.234375 359.480469 65.71875 359.339844 65.046875 L 346.128906 1.652344 C 345.792969 0.0390625 348.148438 0.0390625 348.785156 1.652344 L 374.015625 65.109375 C 374.269531 65.75 374.925781 66.25 375.582031 66.3125 L 440.855469 72.3125 C 442.519531 72.46875 443.226562 74.816406 441.660156 74.972656 L 380.019531 80.96875 C 379.402344 81.03125 379.046875 81.53125 379.1875 82.171875 L 392.40625 145.636719 C 392.742188 147.25 390.386719 147.25 389.746094 145.636719 L 364.542969 82.242188 C 364.292969 81.585938 363.59375 81.070312 362.914062 81.046875 Z M 362.914062 81.046875 " fill-opacity="1" fill-rule="nonzero"/></g></g></g></g></svg>